<?xml version="1.0" encoding="UTF-8" standalone="no"?>
<!-- Created with Digital by H.Neemann -->
<!-- created: Wed Apr 05 21:39:40 MSK 2023 -->

<svg
   xmlns:svg="http://www.w3.org/2000/svg"
   xmlns="http://www.w3.org/2000/svg"
   width="96.0mm"
   height="165.9mm"
   viewBox="-237 -164 640 1106">
<g stroke-linecap="square">
<path d="M 221,380 L 221,429" stroke="#000000" stroke-width="4.0" fill="none"/>
<path d="M 221,540 L 221,491" stroke="#000000" stroke-width="4.0" fill="none"/>
<path d="M 21,0 L 21,9" stroke="#000000" stroke-width="4.0" fill="none"/>
<path d="M 21,80 L 21,71" stroke="#000000" stroke-width="4.0" fill="none"/>
<path d="M 21,120 L 21,129" stroke="#000000" stroke-width="4.0" fill="none"/>
<path d="M 21,200 L 21,191" stroke="#000000" stroke-width="4.0" fill="none"/>
<path d="M 21,240 L 21,249" stroke="#000000" stroke-width="4.0" fill="none"/>
<path d="M 21,320 L 21,311" stroke="#000000" stroke-width="4.0" fill="none"/>
<path d="M 21,360 L 21,369" stroke="#000000" stroke-width="4.0" fill="none"/>
<path d="M 21,440 L 21,431" stroke="#000000" stroke-width="4.0" fill="none"/>
<path d="M 21,480 L 21,489" stroke="#000000" stroke-width="4.0" fill="none"/>
<path d="M 21,560 L 21,551" stroke="#000000" stroke-width="4.0" fill="none"/>
<path d="M 21,600 L 21,609" stroke="#000000" stroke-width="4.0" fill="none"/>
<path d="M 21,680 L 21,671" stroke="#000000" stroke-width="4.0" fill="none"/>
<path d="M 21,720 L 21,729" stroke="#000000" stroke-width="4.0" fill="none"/>
<path d="M 21,800 L 21,791" stroke="#000000" stroke-width="4.0" fill="none"/>
<path d="M 21,840 L 21,849" stroke="#000000" stroke-width="4.0" fill="none"/>
<path d="M 21,920 L 21,911" stroke="#000000" stroke-width="4.0" fill="none"/>
<path d="M -200,-20 L -200,0 L 20,0" stroke="#0000b2" stroke-width="4.0" fill="none"/>
<path d="M 120,640 L 160,640 L 160,500 L 220,500" stroke="#0000b2" stroke-width="4.0" fill="none"/>
<path d="M -100,660 L -100,900 L 20,900" stroke="#0000b2" stroke-width="4.0" fill="none"/>
<path d="M 120,520 L 140,520 L 140,480 L 220,480" stroke="#0000b2" stroke-width="4.0" fill="none"/>
<path d="M -220,940 L -220,840 L 20,840" stroke="#0000b2" stroke-width="4.0" fill="none"/>
<path d="M -80,540 L -80,780 L 20,780" stroke="#0000b2" stroke-width="4.0" fill="none"/>
<path d="M 320,460 L 340,460" stroke="#0000b2" stroke-width="4.0" fill="none"/>
<path d="M -220,-100 L -220,-80 L -200,-80 L -200,-60" stroke="#0000b2" stroke-width="4.0" fill="none"/>
<path d="M -160,-100 L -160,-80 L -140,-80 L -140,-60" stroke="#0000b2" stroke-width="4.0" fill="none"/>
<path d="M -100,-100 L -100,-80 L -80,-80 L -80,-60" stroke="#0000b2" stroke-width="4.0" fill="none"/>
<path d="M -40,-100 L -40,-80 L -20,-80 L -20,-60" stroke="#0000b2" stroke-width="4.0" fill="none"/>
<path d="M -20,-20 L -20,80 L 20,80" stroke="#0000b2" stroke-width="4.0" fill="none"/>
<path d="M 120,400 L 140,400 L 140,440 L 220,440" stroke="#0000b2" stroke-width="4.0" fill="none"/>
<path d="M -140,-20 L -140,20 L 20,20" stroke="#0000b2" stroke-width="4.0" fill="none"/>
<path d="M -100,420 L -100,660 L 20,660" stroke="#0000b2" stroke-width="4.0" fill="none"/>
<path d="M 120,280 L 160,280 L 160,420 L 220,420" stroke="#0000b2" stroke-width="4.0" fill="none"/>
<path d="M -40,940 L -40,920 L 20,920" stroke="#0000b2" stroke-width="4.0" fill="none"/>
<path d="M -80,300 L -80,540 L 20,540" stroke="#0000b2" stroke-width="4.0" fill="none"/>
<path d="M -160,940 L -160,860 L 20,860" stroke="#0000b2" stroke-width="4.0" fill="none"/>
<path d="M 120,160 L 180,160 L 180,400 L 220,400" stroke="#0000b2" stroke-width="4.0" fill="none"/>
<path d="M -220,600 L -220,480 L 20,480" stroke="#0000b2" stroke-width="4.0" fill="none"/>
<path d="M -160,860 L -160,740 L 20,740" stroke="#0000b2" stroke-width="4.0" fill="none"/>
<path d="M 120,40 L 200,40 L 200,380 L 220,380" stroke="#0000b2" stroke-width="4.0" fill="none"/>
<path d="M -80,60 L -80,300 L 20,300" stroke="#0000b2" stroke-width="4.0" fill="none"/>
<path d="M -140,940 L -140,620 L 20,620" stroke="#0000b2" stroke-width="4.0" fill="none"/>
<path d="M -40,320 L -40,560 L 20,560" stroke="#0000b2" stroke-width="4.0" fill="none"/>
<path d="M 120,880 L 200,880 L 200,540 L 220,540" stroke="#0000b2" stroke-width="4.0" fill="none"/>
<path d="M -200,0 L -200,120 L 20,120" stroke="#0000b2" stroke-width="4.0" fill="none"/>
<path d="M -20,80 L -20,440 L 20,440" stroke="#0000b2" stroke-width="4.0" fill="none"/>
<path d="M 120,760 L 180,760 L 180,520 L 220,520" stroke="#0000b2" stroke-width="4.0" fill="none"/>
<path d="M -80,-20 L -80,60 L 20,60" stroke="#0000b2" stroke-width="4.0" fill="none"/>
<path d="M 20,420 L -100,420 L -100,180 L 20,180" stroke="#0000b2" stroke-width="4.0" fill="none"/>
<path d="M -100,-80 L -100,180" stroke="#0000b2" stroke-width="4.0" fill="none"/>
<path d="M -100,900 L -100,940" stroke="#0000b2" stroke-width="4.0" fill="none"/>
<path d="M 20,800 L -20,800 L -20,680 L 20,680" stroke="#0000b2" stroke-width="4.0" fill="none"/>
<path d="M -20,440 L -20,680" stroke="#0000b2" stroke-width="4.0" fill="none"/>
<path d="M -20,800 L -20,940" stroke="#0000b2" stroke-width="4.0" fill="none"/>
<path d="M 20,360 L -200,360 L -200,240 L 20,240" stroke="#0000b2" stroke-width="4.0" fill="none"/>
<path d="M -200,120 L -200,240" stroke="#0000b2" stroke-width="4.0" fill="none"/>
<path d="M -200,360 L -200,940" stroke="#0000b2" stroke-width="4.0" fill="none"/>
<path d="M 20,320 L -40,320 L -40,200 L 20,200" stroke="#0000b2" stroke-width="4.0" fill="none"/>
<path d="M -40,-80 L -40,200" stroke="#0000b2" stroke-width="4.0" fill="none"/>
<path d="M -40,560 L -40,920" stroke="#0000b2" stroke-width="4.0" fill="none"/>
<path d="M 20,720 L -220,720 L -220,600 L 20,600" stroke="#0000b2" stroke-width="4.0" fill="none"/>
<path d="M -220,720 L -220,840" stroke="#0000b2" stroke-width="4.0" fill="none"/>
<path d="M -220,-80 L -220,480" stroke="#0000b2" stroke-width="4.0" fill="none"/>
<path d="M 20,140 L -140,140 L -140,500 L 20,500" stroke="#0000b2" stroke-width="4.0" fill="none"/>
<path d="M -140,20 L -140,140" stroke="#0000b2" stroke-width="4.0" fill="none"/>
<path d="M -140,500 L -140,620" stroke="#0000b2" stroke-width="4.0" fill="none"/>
<path d="M 20,260 L -160,260 L -160,380 L 20,380" stroke="#0000b2" stroke-width="4.0" fill="none"/>
<path d="M -160,-80 L -160,260" stroke="#0000b2" stroke-width="4.0" fill="none"/>
<path d="M -160,380 L -160,740" stroke="#0000b2" stroke-width="4.0" fill="none"/>
<path d="M -80,780 L -80,940" stroke="#0000b2" stroke-width="4.0" fill="none"/>
<g>
<circle cx="-200.0" cy="0.0" r="4.0" stroke="#0000b2" stroke-width="4.0" fill="#0000b2" />
<circle cx="-40.0" cy="320.0" r="4.0" stroke="#0000b2" stroke-width="4.0" fill="#0000b2" />
<circle cx="-160.0" cy="260.0" r="4.0" stroke="#0000b2" stroke-width="4.0" fill="#0000b2" />
<circle cx="-100.0" cy="900.0" r="4.0" stroke="#0000b2" stroke-width="4.0" fill="#0000b2" />
<circle cx="-40.0" cy="200.0" r="4.0" stroke="#0000b2" stroke-width="4.0" fill="#0000b2" />
<circle cx="-220.0" cy="840.0" r="4.0" stroke="#0000b2" stroke-width="4.0" fill="#0000b2" />
<circle cx="-140.0" cy="140.0" r="4.0" stroke="#0000b2" stroke-width="4.0" fill="#0000b2" />
<circle cx="-80.0" cy="780.0" r="4.0" stroke="#0000b2" stroke-width="4.0" fill="#0000b2" />
<circle cx="-220.0" cy="-80.0" r="4.0" stroke="#0000b2" stroke-width="4.0" fill="#0000b2" />
<circle cx="-160.0" cy="-80.0" r="4.0" stroke="#0000b2" stroke-width="4.0" fill="#0000b2" />
<circle cx="-100.0" cy="-80.0" r="4.0" stroke="#0000b2" stroke-width="4.0" fill="#0000b2" />
<circle cx="-40.0" cy="-80.0" r="4.0" stroke="#0000b2" stroke-width="4.0" fill="#0000b2" />
<circle cx="-20.0" cy="80.0" r="4.0" stroke="#0000b2" stroke-width="4.0" fill="#0000b2" />
<circle cx="-220.0" cy="720.0" r="4.0" stroke="#0000b2" stroke-width="4.0" fill="#0000b2" />
<circle cx="-140.0" cy="20.0" r="4.0" stroke="#0000b2" stroke-width="4.0" fill="#0000b2" />
<circle cx="-100.0" cy="660.0" r="4.0" stroke="#0000b2" stroke-width="4.0" fill="#0000b2" />
<circle cx="-220.0" cy="600.0" r="4.0" stroke="#0000b2" stroke-width="4.0" fill="#0000b2" />
<circle cx="-40.0" cy="920.0" r="4.0" stroke="#0000b2" stroke-width="4.0" fill="#0000b2" />
<circle cx="-80.0" cy="540.0" r="4.0" stroke="#0000b2" stroke-width="4.0" fill="#0000b2" />
<circle cx="-160.0" cy="860.0" r="4.0" stroke="#0000b2" stroke-width="4.0" fill="#0000b2" />
<circle cx="-220.0" cy="480.0" r="4.0" stroke="#0000b2" stroke-width="4.0" fill="#0000b2" />
<circle cx="-20.0" cy="800.0" r="4.0" stroke="#0000b2" stroke-width="4.0" fill="#0000b2" />
<circle cx="-100.0" cy="420.0" r="4.0" stroke="#0000b2" stroke-width="4.0" fill="#0000b2" />
<circle cx="-160.0" cy="740.0" r="4.0" stroke="#0000b2" stroke-width="4.0" fill="#0000b2" />
<circle cx="-200.0" cy="360.0" r="4.0" stroke="#0000b2" stroke-width="4.0" fill="#0000b2" />
<circle cx="-20.0" cy="680.0" r="4.0" stroke="#0000b2" stroke-width="4.0" fill="#0000b2" />
<circle cx="-80.0" cy="300.0" r="4.0" stroke="#0000b2" stroke-width="4.0" fill="#0000b2" />
<circle cx="-140.0" cy="620.0" r="4.0" stroke="#0000b2" stroke-width="4.0" fill="#0000b2" />
<circle cx="-200.0" cy="240.0" r="4.0" stroke="#0000b2" stroke-width="4.0" fill="#0000b2" />
<circle cx="-40.0" cy="560.0" r="4.0" stroke="#0000b2" stroke-width="4.0" fill="#0000b2" />
<circle cx="-100.0" cy="180.0" r="4.0" stroke="#0000b2" stroke-width="4.0" fill="#0000b2" />
<circle cx="-140.0" cy="500.0" r="4.0" stroke="#0000b2" stroke-width="4.0" fill="#0000b2" />
<circle cx="-200.0" cy="120.0" r="4.0" stroke="#0000b2" stroke-width="4.0" fill="#0000b2" />
<circle cx="-20.0" cy="440.0" r="4.0" stroke="#0000b2" stroke-width="4.0" fill="#0000b2" />
<circle cx="-80.0" cy="60.0" r="4.0" stroke="#0000b2" stroke-width="4.0" fill="#0000b2" />
<circle cx="-160.0" cy="380.0" r="4.0" stroke="#0000b2" stroke-width="4.0" fill="#0000b2" />
</g>
<g>
<circle cx="356.0" cy="460.0" r="9.0" stroke="#000000" stroke-width="4.0" fill="none" />
<circle cx="356.0" cy="460.0" r="15.0" stroke="#000000" stroke-width="4.0" fill="none" />
<text text-anchor="start" x="385.0" y="469.0" fill="#000000" style="font-size:24px"><tspan style="font-style:italic;">Y</tspan></text>
<circle cx="340.0" cy="460.0" r="2.0" stroke="#0000b2" stroke-width="4.0" fill="#0000b2" />
</g>
<g>
<path d="M 270,490 L 221,490 L 221,430 L 270,430 C 280,430 300,440 299,460 C 299,480 280,490 270,490 Z" stroke="#000000" stroke-width="4.0" fill="none"/>
<circle cx="310.0" cy="460.0" r="9.0" stroke="#000000" stroke-width="4.0" fill="none" />
<circle cx="220.0" cy="380.0" r="2.0" stroke="#0000b2" stroke-width="4.0" fill="#0000b2" />
<circle cx="220.0" cy="400.0" r="2.0" stroke="#0000b2" stroke-width="4.0" fill="#0000b2" />
<circle cx="220.0" cy="420.0" r="2.0" stroke="#0000b2" stroke-width="4.0" fill="#0000b2" />
<circle cx="220.0" cy="440.0" r="2.0" stroke="#0000b2" stroke-width="4.0" fill="#0000b2" />
<circle cx="220.0" cy="480.0" r="2.0" stroke="#0000b2" stroke-width="4.0" fill="#0000b2" />
<circle cx="220.0" cy="500.0" r="2.0" stroke="#0000b2" stroke-width="4.0" fill="#0000b2" />
<circle cx="220.0" cy="520.0" r="2.0" stroke="#0000b2" stroke-width="4.0" fill="#0000b2" />
<circle cx="220.0" cy="540.0" r="2.0" stroke="#0000b2" stroke-width="4.0" fill="#0000b2" />
<circle cx="320.0" cy="460.0" r="2.0" stroke="#b20000" stroke-width="4.0" fill="#b20000" />
</g>
<g>
<path d="M 70,70 L 21,70 L 21,10 L 70,10 C 80,10 100,20 99,40 C 99,60 80,70 70,70 Z" stroke="#000000" stroke-width="4.0" fill="none"/>
<circle cx="110.0" cy="40.0" r="9.0" stroke="#000000" stroke-width="4.0" fill="none" />
<circle cx="20.0" cy="0.0" r="2.0" stroke="#0000b2" stroke-width="4.0" fill="#0000b2" />
<circle cx="20.0" cy="20.0" r="2.0" stroke="#0000b2" stroke-width="4.0" fill="#0000b2" />
<circle cx="20.0" cy="60.0" r="2.0" stroke="#0000b2" stroke-width="4.0" fill="#0000b2" />
<circle cx="20.0" cy="80.0" r="2.0" stroke="#0000b2" stroke-width="4.0" fill="#0000b2" />
<circle cx="120.0" cy="40.0" r="2.0" stroke="#b20000" stroke-width="4.0" fill="#b20000" />
</g>
<g>
<path d="M 70,190 L 21,190 L 21,130 L 70,130 C 80,130 100,140 99,160 C 99,180 80,190 70,190 Z" stroke="#000000" stroke-width="4.0" fill="none"/>
<circle cx="110.0" cy="160.0" r="9.0" stroke="#000000" stroke-width="4.0" fill="none" />
<circle cx="20.0" cy="120.0" r="2.0" stroke="#0000b2" stroke-width="4.0" fill="#0000b2" />
<circle cx="20.0" cy="140.0" r="2.0" stroke="#0000b2" stroke-width="4.0" fill="#0000b2" />
<circle cx="20.0" cy="180.0" r="2.0" stroke="#0000b2" stroke-width="4.0" fill="#0000b2" />
<circle cx="20.0" cy="200.0" r="2.0" stroke="#0000b2" stroke-width="4.0" fill="#0000b2" />
<circle cx="120.0" cy="160.0" r="2.0" stroke="#b20000" stroke-width="4.0" fill="#b20000" />
</g>
<g>
<path d="M 70,310 L 21,310 L 21,250 L 70,250 C 80,250 100,260 99,280 C 99,300 80,310 70,310 Z" stroke="#000000" stroke-width="4.0" fill="none"/>
<circle cx="110.0" cy="280.0" r="9.0" stroke="#000000" stroke-width="4.0" fill="none" />
<circle cx="20.0" cy="240.0" r="2.0" stroke="#0000b2" stroke-width="4.0" fill="#0000b2" />
<circle cx="20.0" cy="260.0" r="2.0" stroke="#0000b2" stroke-width="4.0" fill="#0000b2" />
<circle cx="20.0" cy="300.0" r="2.0" stroke="#0000b2" stroke-width="4.0" fill="#0000b2" />
<circle cx="20.0" cy="320.0" r="2.0" stroke="#0000b2" stroke-width="4.0" fill="#0000b2" />
<circle cx="120.0" cy="280.0" r="2.0" stroke="#b20000" stroke-width="4.0" fill="#b20000" />
</g>
<g>
<path d="M 70,430 L 21,430 L 21,370 L 70,370 C 80,370 100,380 99,400 C 99,420 80,430 70,430 Z" stroke="#000000" stroke-width="4.0" fill="none"/>
<circle cx="110.0" cy="400.0" r="9.0" stroke="#000000" stroke-width="4.0" fill="none" />
<circle cx="20.0" cy="360.0" r="2.0" stroke="#0000b2" stroke-width="4.0" fill="#0000b2" />
<circle cx="20.0" cy="380.0" r="2.0" stroke="#0000b2" stroke-width="4.0" fill="#0000b2" />
<circle cx="20.0" cy="420.0" r="2.0" stroke="#0000b2" stroke-width="4.0" fill="#0000b2" />
<circle cx="20.0" cy="440.0" r="2.0" stroke="#0000b2" stroke-width="4.0" fill="#0000b2" />
<circle cx="120.0" cy="400.0" r="2.0" stroke="#b20000" stroke-width="4.0" fill="#b20000" />
</g>
<g>
<path d="M 70,550 L 21,550 L 21,490 L 70,490 C 80,490 100,500 99,520 C 99,540 80,550 70,550 Z" stroke="#000000" stroke-width="4.0" fill="none"/>
<circle cx="110.0" cy="520.0" r="9.0" stroke="#000000" stroke-width="4.0" fill="none" />
<circle cx="20.0" cy="480.0" r="2.0" stroke="#0000b2" stroke-width="4.0" fill="#0000b2" />
<circle cx="20.0" cy="500.0" r="2.0" stroke="#0000b2" stroke-width="4.0" fill="#0000b2" />
<circle cx="20.0" cy="540.0" r="2.0" stroke="#0000b2" stroke-width="4.0" fill="#0000b2" />
<circle cx="20.0" cy="560.0" r="2.0" stroke="#0000b2" stroke-width="4.0" fill="#0000b2" />
<circle cx="120.0" cy="520.0" r="2.0" stroke="#b20000" stroke-width="4.0" fill="#b20000" />
</g>
<g>
<path d="M 70,670 L 21,670 L 21,610 L 70,610 C 80,610 100,620 99,640 C 99,660 80,670 70,670 Z" stroke="#000000" stroke-width="4.0" fill="none"/>
<circle cx="110.0" cy="640.0" r="9.0" stroke="#000000" stroke-width="4.0" fill="none" />
<circle cx="20.0" cy="600.0" r="2.0" stroke="#0000b2" stroke-width="4.0" fill="#0000b2" />
<circle cx="20.0" cy="620.0" r="2.0" stroke="#0000b2" stroke-width="4.0" fill="#0000b2" />
<circle cx="20.0" cy="660.0" r="2.0" stroke="#0000b2" stroke-width="4.0" fill="#0000b2" />
<circle cx="20.0" cy="680.0" r="2.0" stroke="#0000b2" stroke-width="4.0" fill="#0000b2" />
<circle cx="120.0" cy="640.0" r="2.0" stroke="#b20000" stroke-width="4.0" fill="#b20000" />
</g>
<g>
<path d="M 70,790 L 21,790 L 21,730 L 70,730 C 80,730 100,740 99,760 C 99,780 80,790 70,790 Z" stroke="#000000" stroke-width="4.0" fill="none"/>
<circle cx="110.0" cy="760.0" r="9.0" stroke="#000000" stroke-width="4.0" fill="none" />
<circle cx="20.0" cy="720.0" r="2.0" stroke="#0000b2" stroke-width="4.0" fill="#0000b2" />
<circle cx="20.0" cy="740.0" r="2.0" stroke="#0000b2" stroke-width="4.0" fill="#0000b2" />
<circle cx="20.0" cy="780.0" r="2.0" stroke="#0000b2" stroke-width="4.0" fill="#0000b2" />
<circle cx="20.0" cy="800.0" r="2.0" stroke="#0000b2" stroke-width="4.0" fill="#0000b2" />
<circle cx="120.0" cy="760.0" r="2.0" stroke="#b20000" stroke-width="4.0" fill="#b20000" />
</g>
<g>
<path d="M 70,910 L 21,910 L 21,850 L 70,850 C 80,850 100,860 99,880 C 99,900 80,910 70,910 Z" stroke="#000000" stroke-width="4.0" fill="none"/>
<circle cx="110.0" cy="880.0" r="9.0" stroke="#000000" stroke-width="4.0" fill="none" />
<circle cx="20.0" cy="840.0" r="2.0" stroke="#0000b2" stroke-width="4.0" fill="#0000b2" />
<circle cx="20.0" cy="860.0" r="2.0" stroke="#0000b2" stroke-width="4.0" fill="#0000b2" />
<circle cx="20.0" cy="900.0" r="2.0" stroke="#0000b2" stroke-width="4.0" fill="#0000b2" />
<circle cx="20.0" cy="920.0" r="2.0" stroke="#0000b2" stroke-width="4.0" fill="#0000b2" />
<circle cx="120.0" cy="880.0" r="2.0" stroke="#b20000" stroke-width="4.0" fill="#b20000" />
</g>
<g>
<path d="M -205,-131 L -205,-101 L -235,-101 L -235,-131 Z" stroke="#000000" stroke-width="4.0" fill="none"/>
<circle cx="-220.0" cy="-116.0" r="9.0" stroke="#000000" stroke-width="4.0" fill="none" />
<text text-anchor="start" x="-220.0" y="-136.0" fill="#000000" style="font-size:24px" transform="rotate(-90,-220.0,-145.0)" ><tspan style="font-style:italic;">A</tspan></text>
<circle cx="-220.0" cy="-100.0" r="2.0" stroke="#b20000" stroke-width="4.0" fill="#b20000" />
</g>
<g>
<path d="M -188,-59 L -200,-41 L -212,-59 Z" stroke="#000000" stroke-width="4.0" fill="none"/>
<circle cx="-200.0" cy="-30.0" r="9.0" stroke="#000000" stroke-width="4.0" fill="none" />
<circle cx="-200.0" cy="-60.0" r="2.0" stroke="#0000b2" stroke-width="4.0" fill="#0000b2" />
<circle cx="-200.0" cy="-20.0" r="2.0" stroke="#b20000" stroke-width="4.0" fill="#b20000" />
</g>
<g>
<path d="M -145,-131 L -145,-101 L -175,-101 L -175,-131 Z" stroke="#000000" stroke-width="4.0" fill="none"/>
<circle cx="-160.0" cy="-116.0" r="9.0" stroke="#000000" stroke-width="4.0" fill="none" />
<text text-anchor="start" x="-160.0" y="-136.0" fill="#000000" style="font-size:24px" transform="rotate(-90,-160.0,-145.0)" ><tspan style="font-style:italic;">B</tspan></text>
<circle cx="-160.0" cy="-100.0" r="2.0" stroke="#b20000" stroke-width="4.0" fill="#b20000" />
</g>
<g>
<path d="M -128,-59 L -140,-41 L -152,-59 Z" stroke="#000000" stroke-width="4.0" fill="none"/>
<circle cx="-140.0" cy="-30.0" r="9.0" stroke="#000000" stroke-width="4.0" fill="none" />
<circle cx="-140.0" cy="-60.0" r="2.0" stroke="#0000b2" stroke-width="4.0" fill="#0000b2" />
<circle cx="-140.0" cy="-20.0" r="2.0" stroke="#b20000" stroke-width="4.0" fill="#b20000" />
</g>
<g>
<path d="M -85,-131 L -85,-101 L -115,-101 L -115,-131 Z" stroke="#000000" stroke-width="4.0" fill="none"/>
<circle cx="-100.0" cy="-116.0" r="9.0" stroke="#000000" stroke-width="4.0" fill="none" />
<text text-anchor="start" x="-100.0" y="-136.0" fill="#000000" style="font-size:24px" transform="rotate(-90,-100.0,-145.0)" ><tspan style="font-style:italic;">C</tspan></text>
<circle cx="-100.0" cy="-100.0" r="2.0" stroke="#b20000" stroke-width="4.0" fill="#b20000" />
</g>
<g>
<path d="M -68,-59 L -80,-41 L -92,-59 Z" stroke="#000000" stroke-width="4.0" fill="none"/>
<circle cx="-80.0" cy="-30.0" r="9.0" stroke="#000000" stroke-width="4.0" fill="none" />
<circle cx="-80.0" cy="-60.0" r="2.0" stroke="#0000b2" stroke-width="4.0" fill="#0000b2" />
<circle cx="-80.0" cy="-20.0" r="2.0" stroke="#b20000" stroke-width="4.0" fill="#b20000" />
</g>
<g>
<path d="M -25,-131 L -25,-101 L -55,-101 L -55,-131 Z" stroke="#000000" stroke-width="4.0" fill="none"/>
<circle cx="-40.0" cy="-116.0" r="9.0" stroke="#000000" stroke-width="4.0" fill="none" />
<text text-anchor="start" x="-40.0" y="-136.0" fill="#000000" style="font-size:24px" transform="rotate(-90,-40.0,-145.0)" ><tspan style="font-style:italic;">D</tspan></text>
<circle cx="-40.0" cy="-100.0" r="2.0" stroke="#b20000" stroke-width="4.0" fill="#b20000" />
</g>
<g>
<path d="M -8,-59 L -20,-41 L -32,-59 Z" stroke="#000000" stroke-width="4.0" fill="none"/>
<circle cx="-20.0" cy="-30.0" r="9.0" stroke="#000000" stroke-width="4.0" fill="none" />
<circle cx="-20.0" cy="-60.0" r="2.0" stroke="#0000b2" stroke-width="4.0" fill="#0000b2" />
<circle cx="-20.0" cy="-20.0" r="2.0" stroke="#b20000" stroke-width="4.0" fill="#b20000" />
</g>
</g>
</svg>