<?xml version="1.0" encoding="UTF-8" standalone="no"?>
<!-- Created with Digital by H.Neemann -->
<!-- created: Wed Apr 05 20:41:32 MSK 2023 -->

<svg
   xmlns:svg="http://www.w3.org/2000/svg"
   xmlns="http://www.w3.org/2000/svg"
   width="139.95mm"
   height="180.75mm"
   viewBox="203 38 933 1205">
<g stroke-linecap="square">
<path d="M 641,300 L 641,309" stroke="#000000" stroke-width="4.0" fill="none"/>
<path d="M 641,380 L 641,371" stroke="#000000" stroke-width="4.0" fill="none"/>
<path d="M 1020,1061 L 971,1061" stroke="#000000" stroke-width="4.0" fill="none"/>
<path d="M 860,1061 L 909,1061" stroke="#000000" stroke-width="4.0" fill="none"/>
<path d="M 641,400 L 641,409" stroke="#000000" stroke-width="4.0" fill="none"/>
<path d="M 641,480 L 641,471" stroke="#000000" stroke-width="4.0" fill="none"/>
<path d="M 641,500 L 641,509" stroke="#000000" stroke-width="4.0" fill="none"/>
<path d="M 641,580 L 641,571" stroke="#000000" stroke-width="4.0" fill="none"/>
<path d="M 641,600 L 641,609" stroke="#000000" stroke-width="4.0" fill="none"/>
<path d="M 641,680 L 641,671" stroke="#000000" stroke-width="4.0" fill="none"/>
<path d="M 641,700 L 641,709" stroke="#000000" stroke-width="4.0" fill="none"/>
<path d="M 641,780 L 641,771" stroke="#000000" stroke-width="4.0" fill="none"/>
<path d="M 641,800 L 641,809" stroke="#000000" stroke-width="4.0" fill="none"/>
<path d="M 641,880 L 641,871" stroke="#000000" stroke-width="4.0" fill="none"/>
<path d="M 641,900 L 641,909" stroke="#000000" stroke-width="4.0" fill="none"/>
<path d="M 641,980 L 641,971" stroke="#000000" stroke-width="4.0" fill="none"/>
<path d="M 641,1000 L 641,1009" stroke="#000000" stroke-width="4.0" fill="none"/>
<path d="M 641,1080 L 641,1071" stroke="#000000" stroke-width="4.0" fill="none"/>
<path d="M 340,280 L 340,320 L 640,320" stroke="#0000b2" stroke-width="4.0" fill="none"/>
<path d="M 720,640 L 960,640 L 960,1060 L 960,1064" stroke="#0000b2" stroke-width="4.0" fill="none"/>
<path d="M 420,1160 L 420,960 L 640,960" stroke="#0000b2" stroke-width="4.0" fill="none"/>
<path d="M 460,480 L 460,580 L 640,580" stroke="#0000b2" stroke-width="4.0" fill="none"/>
<path d="M 220,1000 L 220,900 L 640,900" stroke="#0000b2" stroke-width="4.0" fill="none"/>
<path d="M 720,840 L 900,840 L 900,1060" stroke="#0000b2" stroke-width="4.0" fill="none"/>
<path d="M 300,220 L 300,520 L 640,520" stroke="#0000b2" stroke-width="4.0" fill="none"/>
<path d="M 380,660 L 380,460 L 640,460" stroke="#0000b2" stroke-width="4.0" fill="none"/>
<path d="M 720,1040 L 860,1040 L 860,1060" stroke="#0000b2" stroke-width="4.0" fill="none"/>
<path d="M 720,340 L 1020,340 L 1020,1060" stroke="#0000b2" stroke-width="4.0" fill="none"/>
<path d="M 500,1160 L 500,980 L 640,980" stroke="#0000b2" stroke-width="4.0" fill="none"/>
<path d="M 260,1160 L 260,600 L 640,600" stroke="#0000b2" stroke-width="4.0" fill="none"/>
<path d="M 220,200 L 220,220 L 260,220 L 260,240" stroke="#0000b2" stroke-width="4.0" fill="none"/>
<path d="M 300,200 L 300,220 L 340,220 L 340,240" stroke="#0000b2" stroke-width="4.0" fill="none"/>
<path d="M 380,200 L 380,220 L 420,220 L 420,240" stroke="#0000b2" stroke-width="4.0" fill="none"/>
<path d="M 460,200 L 460,220 L 500,220 L 500,240" stroke="#0000b2" stroke-width="4.0" fill="none"/>
<path d="M 720,540 L 980,540 L 980,1060" stroke="#0000b2" stroke-width="4.0" fill="none"/>
<path d="M 460,220 L 460,480 L 640,480" stroke="#0000b2" stroke-width="4.0" fill="none"/>
<path d="M 220,900 L 220,800 L 640,800" stroke="#0000b2" stroke-width="4.0" fill="none"/>
<path d="M 720,740 L 920,740 L 920,1060 L 920,1064" stroke="#0000b2" stroke-width="4.0" fill="none"/>
<path d="M 380,1160 L 380,1060 L 640,1060" stroke="#0000b2" stroke-width="4.0" fill="none"/>
<path d="M 420,280 L 420,360 L 640,360" stroke="#0000b2" stroke-width="4.0" fill="none"/>
<path d="M 500,380 L 500,680 L 640,680" stroke="#0000b2" stroke-width="4.0" fill="none"/>
<path d="M 220,1160 L 220,1000 L 640,1000" stroke="#0000b2" stroke-width="4.0" fill="none"/>
<path d="M 260,280 L 260,300 L 640,300" stroke="#0000b2" stroke-width="4.0" fill="none"/>
<path d="M 720,940 L 880,940 L 880,1060" stroke="#0000b2" stroke-width="4.0" fill="none"/>
<path d="M 500,680 L 500,880 L 640,880" stroke="#0000b2" stroke-width="4.0" fill="none"/>
<path d="M 340,1160 L 340,820 L 640,820" stroke="#0000b2" stroke-width="4.0" fill="none"/>
<path d="M 720,440 L 1000,440 L 1000,1060" stroke="#0000b2" stroke-width="4.0" fill="none"/>
<path d="M 220,220 L 220,700 L 640,700" stroke="#0000b2" stroke-width="4.0" fill="none"/>
<path d="M 300,1160 L 300,1020 L 640,1020" stroke="#0000b2" stroke-width="4.0" fill="none"/>
<path d="M 500,280 L 500,380 L 640,380" stroke="#0000b2" stroke-width="4.0" fill="none"/>
<path d="M 640,400 L 260,400 L 260,500 L 640,500" stroke="#0000b2" stroke-width="4.0" fill="none"/>
<path d="M 260,300 L 260,400" stroke="#0000b2" stroke-width="4.0" fill="none"/>
<path d="M 260,500 L 260,600" stroke="#0000b2" stroke-width="4.0" fill="none"/>
<path d="M 640,560 L 420,560 L 420,760 L 640,760" stroke="#0000b2" stroke-width="4.0" fill="none"/>
<path d="M 420,360 L 420,560" stroke="#0000b2" stroke-width="4.0" fill="none"/>
<path d="M 420,760 L 420,960" stroke="#0000b2" stroke-width="4.0" fill="none"/>
<path d="M 640,780 L 460,780 L 460,1080 L 640,1080" stroke="#0000b2" stroke-width="4.0" fill="none"/>
<path d="M 460,1080 L 460,1160" stroke="#0000b2" stroke-width="4.0" fill="none"/>
<path d="M 460,580 L 460,780" stroke="#0000b2" stroke-width="4.0" fill="none"/>
<path d="M 640,920 L 300,920 L 300,620 L 640,620" stroke="#0000b2" stroke-width="4.0" fill="none"/>
<path d="M 300,520 L 300,620" stroke="#0000b2" stroke-width="4.0" fill="none"/>
<path d="M 300,920 L 300,1020" stroke="#0000b2" stroke-width="4.0" fill="none"/>
<path d="M 940,1140 L 940,1180" stroke="#0000b2" stroke-width="4.0" fill="none"/>
<path d="M 640,720 L 340,720 L 340,420 L 640,420" stroke="#0000b2" stroke-width="4.0" fill="none"/>
<path d="M 340,320 L 340,420" stroke="#0000b2" stroke-width="4.0" fill="none"/>
<path d="M 340,720 L 340,820" stroke="#0000b2" stroke-width="4.0" fill="none"/>
<path d="M 500,880 L 500,980" stroke="#0000b2" stroke-width="4.0" fill="none"/>
<path d="M 220,700 L 220,800" stroke="#0000b2" stroke-width="4.0" fill="none"/>
<path d="M 640,660 L 380,660 L 380,860 L 640,860" stroke="#0000b2" stroke-width="4.0" fill="none"/>
<path d="M 380,220 L 380,460" stroke="#0000b2" stroke-width="4.0" fill="none"/>
<path d="M 380,860 L 380,1060" stroke="#0000b2" stroke-width="4.0" fill="none"/>
<g>
<circle cx="340.0" cy="320.0" r="4.0" stroke="#0000b2" stroke-width="4.0" fill="#0000b2" />
<circle cx="420.0" cy="960.0" r="4.0" stroke="#0000b2" stroke-width="4.0" fill="#0000b2" />
<circle cx="460.0" cy="580.0" r="4.0" stroke="#0000b2" stroke-width="4.0" fill="#0000b2" />
<circle cx="220.0" cy="900.0" r="4.0" stroke="#0000b2" stroke-width="4.0" fill="#0000b2" />
<circle cx="300.0" cy="520.0" r="4.0" stroke="#0000b2" stroke-width="4.0" fill="#0000b2" />
<circle cx="380.0" cy="460.0" r="4.0" stroke="#0000b2" stroke-width="4.0" fill="#0000b2" />
<circle cx="460.0" cy="780.0" r="4.0" stroke="#0000b2" stroke-width="4.0" fill="#0000b2" />
<circle cx="260.0" cy="400.0" r="4.0" stroke="#0000b2" stroke-width="4.0" fill="#0000b2" />
<circle cx="340.0" cy="720.0" r="4.0" stroke="#0000b2" stroke-width="4.0" fill="#0000b2" />
<circle cx="380.0" cy="660.0" r="4.0" stroke="#0000b2" stroke-width="4.0" fill="#0000b2" />
<circle cx="500.0" cy="980.0" r="4.0" stroke="#0000b2" stroke-width="4.0" fill="#0000b2" />
<circle cx="260.0" cy="600.0" r="4.0" stroke="#0000b2" stroke-width="4.0" fill="#0000b2" />
<circle cx="300.0" cy="920.0" r="4.0" stroke="#0000b2" stroke-width="4.0" fill="#0000b2" />
<circle cx="220.0" cy="220.0" r="4.0" stroke="#0000b2" stroke-width="4.0" fill="#0000b2" />
<circle cx="300.0" cy="220.0" r="4.0" stroke="#0000b2" stroke-width="4.0" fill="#0000b2" />
<circle cx="380.0" cy="220.0" r="4.0" stroke="#0000b2" stroke-width="4.0" fill="#0000b2" />
<circle cx="460.0" cy="220.0" r="4.0" stroke="#0000b2" stroke-width="4.0" fill="#0000b2" />
<circle cx="380.0" cy="860.0" r="4.0" stroke="#0000b2" stroke-width="4.0" fill="#0000b2" />
<circle cx="460.0" cy="480.0" r="4.0" stroke="#0000b2" stroke-width="4.0" fill="#0000b2" />
<circle cx="220.0" cy="800.0" r="4.0" stroke="#0000b2" stroke-width="4.0" fill="#0000b2" />
<circle cx="340.0" cy="420.0" r="4.0" stroke="#0000b2" stroke-width="4.0" fill="#0000b2" />
<circle cx="380.0" cy="1060.0" r="4.0" stroke="#0000b2" stroke-width="4.0" fill="#0000b2" />
<circle cx="420.0" cy="360.0" r="4.0" stroke="#0000b2" stroke-width="4.0" fill="#0000b2" />
<circle cx="500.0" cy="680.0" r="4.0" stroke="#0000b2" stroke-width="4.0" fill="#0000b2" />
<circle cx="220.0" cy="1000.0" r="4.0" stroke="#0000b2" stroke-width="4.0" fill="#0000b2" />
<circle cx="260.0" cy="300.0" r="4.0" stroke="#0000b2" stroke-width="4.0" fill="#0000b2" />
<circle cx="300.0" cy="620.0" r="4.0" stroke="#0000b2" stroke-width="4.0" fill="#0000b2" />
<circle cx="420.0" cy="560.0" r="4.0" stroke="#0000b2" stroke-width="4.0" fill="#0000b2" />
<circle cx="500.0" cy="880.0" r="4.0" stroke="#0000b2" stroke-width="4.0" fill="#0000b2" />
<circle cx="260.0" cy="500.0" r="4.0" stroke="#0000b2" stroke-width="4.0" fill="#0000b2" />
<circle cx="340.0" cy="820.0" r="4.0" stroke="#0000b2" stroke-width="4.0" fill="#0000b2" />
<circle cx="420.0" cy="760.0" r="4.0" stroke="#0000b2" stroke-width="4.0" fill="#0000b2" />
<circle cx="460.0" cy="1080.0" r="4.0" stroke="#0000b2" stroke-width="4.0" fill="#0000b2" />
<circle cx="220.0" cy="700.0" r="4.0" stroke="#0000b2" stroke-width="4.0" fill="#0000b2" />
<circle cx="300.0" cy="1020.0" r="4.0" stroke="#0000b2" stroke-width="4.0" fill="#0000b2" />
<circle cx="500.0" cy="380.0" r="4.0" stroke="#0000b2" stroke-width="4.0" fill="#0000b2" />
</g>
<g>
<text text-anchor="start" x="220.0" y="58.0" fill="#000000" style="font-size:24px">!A!B!C!D + !A!BCD + !AB!CD + !ABC!D + A!B!CD + A!BC!D + AB!C!D + ABCD</text>
</g>
<g>
<path d="M 690,370 L 641,370 L 641,310 L 690,310 C 700,310 720,320 719,340 C 719,360 700,370 690,370 Z" stroke="#000000" stroke-width="4.0" fill="none"/>
<circle cx="640.0" cy="300.0" r="2.0" stroke="#0000b2" stroke-width="4.0" fill="#0000b2" />
<circle cx="640.0" cy="320.0" r="2.0" stroke="#0000b2" stroke-width="4.0" fill="#0000b2" />
<circle cx="640.0" cy="360.0" r="2.0" stroke="#0000b2" stroke-width="4.0" fill="#0000b2" />
<circle cx="640.0" cy="380.0" r="2.0" stroke="#0000b2" stroke-width="4.0" fill="#0000b2" />
<circle cx="720.0" cy="340.0" r="2.0" stroke="#b20000" stroke-width="4.0" fill="#b20000" />
</g>
<g>
<path d="M 235,169 L 235,199 L 205,199 L 205,169 Z" stroke="#000000" stroke-width="4.0" fill="none"/>
<circle cx="220.0" cy="184.0" r="9.0" stroke="#000000" stroke-width="4.0" fill="none" />
<text text-anchor="start" x="220.0" y="164.0" fill="#000000" style="font-size:24px" transform="rotate(-90,220.0,155.0)" ><tspan style="font-style:italic;">A</tspan></text>
<circle cx="220.0" cy="200.0" r="2.0" stroke="#b20000" stroke-width="4.0" fill="#b20000" />
</g>
<g>
<path d="M 315,169 L 315,199 L 285,199 L 285,169 Z" stroke="#000000" stroke-width="4.0" fill="none"/>
<circle cx="300.0" cy="184.0" r="9.0" stroke="#000000" stroke-width="4.0" fill="none" />
<text text-anchor="start" x="300.0" y="164.0" fill="#000000" style="font-size:24px" transform="rotate(-90,300.0,155.0)" ><tspan style="font-style:italic;">B</tspan></text>
<circle cx="300.0" cy="200.0" r="2.0" stroke="#b20000" stroke-width="4.0" fill="#b20000" />
</g>
<g>
<path d="M 272,241 L 260,259 L 248,241 Z" stroke="#000000" stroke-width="4.0" fill="none"/>
<circle cx="260.0" cy="270.0" r="9.0" stroke="#000000" stroke-width="4.0" fill="none" />
<circle cx="260.0" cy="240.0" r="2.0" stroke="#0000b2" stroke-width="4.0" fill="#0000b2" />
<circle cx="260.0" cy="280.0" r="2.0" stroke="#b20000" stroke-width="4.0" fill="#b20000" />
</g>
<g>
<path d="M 910,1090 L 910,1060 C 926,1070 954,1070 970,1060 L 970,1080 C 970,1110 960,1130 940,1140 C 920,1130 910,1110 910,1090 Z" stroke="#000000" stroke-width="4.0" fill="none"/>
<circle cx="1020.0" cy="1060.0" r="2.0" stroke="#0000b2" stroke-width="4.0" fill="#0000b2" />
<circle cx="1000.0" cy="1060.0" r="2.0" stroke="#0000b2" stroke-width="4.0" fill="#0000b2" />
<circle cx="980.0" cy="1060.0" r="2.0" stroke="#0000b2" stroke-width="4.0" fill="#0000b2" />
<circle cx="960.0" cy="1060.0" r="2.0" stroke="#0000b2" stroke-width="4.0" fill="#0000b2" />
<circle cx="920.0" cy="1060.0" r="2.0" stroke="#0000b2" stroke-width="4.0" fill="#0000b2" />
<circle cx="900.0" cy="1060.0" r="2.0" stroke="#0000b2" stroke-width="4.0" fill="#0000b2" />
<circle cx="880.0" cy="1060.0" r="2.0" stroke="#0000b2" stroke-width="4.0" fill="#0000b2" />
<circle cx="860.0" cy="1060.0" r="2.0" stroke="#0000b2" stroke-width="4.0" fill="#0000b2" />
<circle cx="940.0" cy="1140.0" r="2.0" stroke="#b20000" stroke-width="4.0" fill="#b20000" />
</g>
<g>
<path d="M 395,169 L 395,199 L 365,199 L 365,169 Z" stroke="#000000" stroke-width="4.0" fill="none"/>
<circle cx="380.0" cy="184.0" r="9.0" stroke="#000000" stroke-width="4.0" fill="none" />
<text text-anchor="start" x="380.0" y="164.0" fill="#000000" style="font-size:24px" transform="rotate(-90,380.0,155.0)" ><tspan style="font-style:italic;">C</tspan></text>
<circle cx="380.0" cy="200.0" r="2.0" stroke="#b20000" stroke-width="4.0" fill="#b20000" />
</g>
<g>
<path d="M 475,169 L 475,199 L 445,199 L 445,169 Z" stroke="#000000" stroke-width="4.0" fill="none"/>
<circle cx="460.0" cy="184.0" r="9.0" stroke="#000000" stroke-width="4.0" fill="none" />
<text text-anchor="start" x="460.0" y="164.0" fill="#000000" style="font-size:24px" transform="rotate(-90,460.0,155.0)" ><tspan style="font-style:italic;">D</tspan></text>
<circle cx="460.0" cy="200.0" r="2.0" stroke="#b20000" stroke-width="4.0" fill="#b20000" />
</g>
<g>
<path d="M 352,241 L 340,259 L 328,241 Z" stroke="#000000" stroke-width="4.0" fill="none"/>
<circle cx="340.0" cy="270.0" r="9.0" stroke="#000000" stroke-width="4.0" fill="none" />
<circle cx="340.0" cy="240.0" r="2.0" stroke="#0000b2" stroke-width="4.0" fill="#0000b2" />
<circle cx="340.0" cy="280.0" r="2.0" stroke="#b20000" stroke-width="4.0" fill="#b20000" />
</g>
<g>
<path d="M 432,241 L 420,259 L 408,241 Z" stroke="#000000" stroke-width="4.0" fill="none"/>
<circle cx="420.0" cy="270.0" r="9.0" stroke="#000000" stroke-width="4.0" fill="none" />
<circle cx="420.0" cy="240.0" r="2.0" stroke="#0000b2" stroke-width="4.0" fill="#0000b2" />
<circle cx="420.0" cy="280.0" r="2.0" stroke="#b20000" stroke-width="4.0" fill="#b20000" />
</g>
<g>
<path d="M 512,241 L 500,259 L 488,241 Z" stroke="#000000" stroke-width="4.0" fill="none"/>
<circle cx="500.0" cy="270.0" r="9.0" stroke="#000000" stroke-width="4.0" fill="none" />
<circle cx="500.0" cy="240.0" r="2.0" stroke="#0000b2" stroke-width="4.0" fill="#0000b2" />
<circle cx="500.0" cy="280.0" r="2.0" stroke="#b20000" stroke-width="4.0" fill="#b20000" />
</g>
<g>
<path d="M 690,470 L 641,470 L 641,410 L 690,410 C 700,410 720,420 719,440 C 719,460 700,470 690,470 Z" stroke="#000000" stroke-width="4.0" fill="none"/>
<circle cx="640.0" cy="400.0" r="2.0" stroke="#0000b2" stroke-width="4.0" fill="#0000b2" />
<circle cx="640.0" cy="420.0" r="2.0" stroke="#0000b2" stroke-width="4.0" fill="#0000b2" />
<circle cx="640.0" cy="460.0" r="2.0" stroke="#0000b2" stroke-width="4.0" fill="#0000b2" />
<circle cx="640.0" cy="480.0" r="2.0" stroke="#0000b2" stroke-width="4.0" fill="#0000b2" />
<circle cx="720.0" cy="440.0" r="2.0" stroke="#b20000" stroke-width="4.0" fill="#b20000" />
</g>
<g>
<path d="M 690,570 L 641,570 L 641,510 L 690,510 C 700,510 720,520 719,540 C 719,560 700,570 690,570 Z" stroke="#000000" stroke-width="4.0" fill="none"/>
<circle cx="640.0" cy="500.0" r="2.0" stroke="#0000b2" stroke-width="4.0" fill="#0000b2" />
<circle cx="640.0" cy="520.0" r="2.0" stroke="#0000b2" stroke-width="4.0" fill="#0000b2" />
<circle cx="640.0" cy="560.0" r="2.0" stroke="#0000b2" stroke-width="4.0" fill="#0000b2" />
<circle cx="640.0" cy="580.0" r="2.0" stroke="#0000b2" stroke-width="4.0" fill="#0000b2" />
<circle cx="720.0" cy="540.0" r="2.0" stroke="#b20000" stroke-width="4.0" fill="#b20000" />
</g>
<g>
<path d="M 690,670 L 641,670 L 641,610 L 690,610 C 700,610 720,620 719,640 C 719,660 700,670 690,670 Z" stroke="#000000" stroke-width="4.0" fill="none"/>
<circle cx="640.0" cy="600.0" r="2.0" stroke="#0000b2" stroke-width="4.0" fill="#0000b2" />
<circle cx="640.0" cy="620.0" r="2.0" stroke="#0000b2" stroke-width="4.0" fill="#0000b2" />
<circle cx="640.0" cy="660.0" r="2.0" stroke="#0000b2" stroke-width="4.0" fill="#0000b2" />
<circle cx="640.0" cy="680.0" r="2.0" stroke="#0000b2" stroke-width="4.0" fill="#0000b2" />
<circle cx="720.0" cy="640.0" r="2.0" stroke="#b20000" stroke-width="4.0" fill="#b20000" />
</g>
<g>
<path d="M 690,770 L 641,770 L 641,710 L 690,710 C 700,710 720,720 719,740 C 719,760 700,770 690,770 Z" stroke="#000000" stroke-width="4.0" fill="none"/>
<circle cx="640.0" cy="700.0" r="2.0" stroke="#0000b2" stroke-width="4.0" fill="#0000b2" />
<circle cx="640.0" cy="720.0" r="2.0" stroke="#0000b2" stroke-width="4.0" fill="#0000b2" />
<circle cx="640.0" cy="760.0" r="2.0" stroke="#0000b2" stroke-width="4.0" fill="#0000b2" />
<circle cx="640.0" cy="780.0" r="2.0" stroke="#0000b2" stroke-width="4.0" fill="#0000b2" />
<circle cx="720.0" cy="740.0" r="2.0" stroke="#b20000" stroke-width="4.0" fill="#b20000" />
</g>
<g>
<path d="M 690,870 L 641,870 L 641,810 L 690,810 C 700,810 720,820 719,840 C 719,860 700,870 690,870 Z" stroke="#000000" stroke-width="4.0" fill="none"/>
<circle cx="640.0" cy="800.0" r="2.0" stroke="#0000b2" stroke-width="4.0" fill="#0000b2" />
<circle cx="640.0" cy="820.0" r="2.0" stroke="#0000b2" stroke-width="4.0" fill="#0000b2" />
<circle cx="640.0" cy="860.0" r="2.0" stroke="#0000b2" stroke-width="4.0" fill="#0000b2" />
<circle cx="640.0" cy="880.0" r="2.0" stroke="#0000b2" stroke-width="4.0" fill="#0000b2" />
<circle cx="720.0" cy="840.0" r="2.0" stroke="#b20000" stroke-width="4.0" fill="#b20000" />
</g>
<g>
<path d="M 690,970 L 641,970 L 641,910 L 690,910 C 700,910 720,920 719,940 C 719,960 700,970 690,970 Z" stroke="#000000" stroke-width="4.0" fill="none"/>
<circle cx="640.0" cy="900.0" r="2.0" stroke="#0000b2" stroke-width="4.0" fill="#0000b2" />
<circle cx="640.0" cy="920.0" r="2.0" stroke="#0000b2" stroke-width="4.0" fill="#0000b2" />
<circle cx="640.0" cy="960.0" r="2.0" stroke="#0000b2" stroke-width="4.0" fill="#0000b2" />
<circle cx="640.0" cy="980.0" r="2.0" stroke="#0000b2" stroke-width="4.0" fill="#0000b2" />
<circle cx="720.0" cy="940.0" r="2.0" stroke="#b20000" stroke-width="4.0" fill="#b20000" />
</g>
<g>
<path d="M 690,1070 L 641,1070 L 641,1010 L 690,1010 C 700,1010 720,1020 719,1040 C 719,1060 700,1070 690,1070 Z" stroke="#000000" stroke-width="4.0" fill="none"/>
<circle cx="640.0" cy="1000.0" r="2.0" stroke="#0000b2" stroke-width="4.0" fill="#0000b2" />
<circle cx="640.0" cy="1020.0" r="2.0" stroke="#0000b2" stroke-width="4.0" fill="#0000b2" />
<circle cx="640.0" cy="1060.0" r="2.0" stroke="#0000b2" stroke-width="4.0" fill="#0000b2" />
<circle cx="640.0" cy="1080.0" r="2.0" stroke="#0000b2" stroke-width="4.0" fill="#0000b2" />
<circle cx="720.0" cy="1040.0" r="2.0" stroke="#b20000" stroke-width="4.0" fill="#b20000" />
</g>
<g>
<circle cx="940.0" cy="1196.0" r="9.0" stroke="#000000" stroke-width="4.0" fill="none" />
<circle cx="940.0" cy="1196.0" r="15.0" stroke="#000000" stroke-width="4.0" fill="none" />
<text text-anchor="end" x="940.0" y="1234.0" fill="#000000" style="font-size:24px" transform="rotate(-90,940.0,1225.0)" ><tspan style="font-style:italic;">Y</tspan></text>
<circle cx="940.0" cy="1180.0" r="2.0" stroke="#0000b2" stroke-width="4.0" fill="#0000b2" />
</g>
</g>
</svg>